<?xml version="1.0" encoding="UTF-8" standalone="no"?>
<!-- Created with Inkscape (http://www.inkscape.org/) -->

<svg
   xmlns:dc="http://purl.org/dc/elements/1.1/"
   xmlns:cc="http://creativecommons.org/ns#"
   xmlns:rdf="http://www.w3.org/1999/02/22-rdf-syntax-ns#"
   xmlns:svg="http://www.w3.org/2000/svg"
   xmlns="http://www.w3.org/2000/svg"
   xmlns:sodipodi="http://sodipodi.sourceforge.net/DTD/sodipodi-0.dtd"
   xmlns:inkscape="http://www.inkscape.org/namespaces/inkscape"
   width="134.49089mm"
   height="58.197948mm"
   viewBox="0 0 134.49089 58.197948"
   version="1.1"
   id="svg8"
   inkscape:version="0.92.1 r15371"
   sodipodi:docname="FX13_truckgrey.svg">
  <defs
     id="defs2" />
  <sodipodi:namedview
     id="base"
     pagecolor="#ffffff"
     bordercolor="#666666"
     borderopacity="1.0"
     inkscape:pageopacity="0.0"
     inkscape:pageshadow="2"
     inkscape:zoom="0.49497475"
     inkscape:cx="336.86117"
     inkscape:cy="12.854646"
     inkscape:document-units="mm"
     inkscape:current-layer="layer1"
     showgrid="false"
     inkscape:snap-global="false"
     inkscape:window-width="1920"
     inkscape:window-height="1016"
     inkscape:window-x="0"
     inkscape:window-y="27"
     inkscape:window-maximized="1"
     fit-margin-top="0"
     fit-margin-left="0"
     fit-margin-right="0"
     fit-margin-bottom="0" />
  <metadata
     id="metadata5">
    <rdf:RDF>
      <cc:Work
         rdf:about="">
        <dc:format>image/svg+xml</dc:format>
        <dc:type
           rdf:resource="http://purl.org/dc/dcmitype/StillImage" />
        <dc:title></dc:title>
      </cc:Work>
    </rdf:RDF>
  </metadata>
  <g
     inkscape:label="Layer 1"
     inkscape:groupmode="layer"
     id="layer1"
     transform="translate(-22.957858,-90.400653)">
    <path
       style="fill:#e6e6e6;stroke:none;stroke-width:0.26458332px;stroke-linecap:butt;stroke-linejoin:miter;stroke-opacity:1"
       d="m 149.99145,109.47054 h -8.21723 c 0,0 -1.47283,6.14381 -1.51491,8.75284 1.80947,0.33665 13.63422,1.34658 13.63422,1.34658 -1.11193,-3.96494 -2.80798,-7.13051 -3.90208,-10.09942 z"
       id="path29"
       inkscape:connector-curvature="0"
       sodipodi:nodetypes="ccccc" />
    <path
       style="fill:#000000;stroke:#000000;stroke-width:0.26458332px;stroke-linecap:butt;stroke-linejoin:miter;stroke-opacity:1"
       d="m 145.6327,117.38275 c 0.17854,0.0893 2.32095,1.19023 2.23168,1.19023 -0.0893,0 -1.48778,1.36877 -1.33901,1.33901 0.14879,-0.0298 5.89164,0.17853 5.89164,0.17853 l -2.49948,-1.66632 c 0,0 0.83316,-1.8151 0.65462,-1.84485 -0.17853,-0.0297 -4.93945,0.8034 -4.93945,0.8034 z"
       id="path965"
       inkscape:connector-curvature="0" />
    <path
       style="fill:#cccccc;fill-opacity:1;stroke:none;stroke-width:0.26458332px;stroke-linecap:butt;stroke-linejoin:miter;stroke-opacity:1"
       d="m 145.32952,99.490149 c 0,0 -18.17896,0.168455 -17.0007,0.505103 l -2.02008,35.179538 7.40633,-1.00988 2.35661,-2.52487 8.41622,1.00988 5.21799,6.90124 4.03985,-0.50478 1.51466,-6.39646 1.34672,0.84162 -0.84162,-15.65397 z m -3.55525,9.980351 h 8.21704 c 1.09411,2.96891 2.79025,6.13451 3.90218,10.09946 0,0 -11.82473,-1.01008 -13.6342,-1.34673 0.0421,-2.60902 1.51498,-8.75273 1.51498,-8.75273 z"
       id="path23"
       inkscape:connector-curvature="0" />
    <path
       style="fill:#000000;stroke:none;stroke-width:0.26458332px;stroke-linecap:butt;stroke-linejoin:miter;stroke-opacity:1"
       d="m 132.39739,130.86457 c 0,0.84162 0.16832,10.43608 0.16832,10.43608 l 16.66405,-0.16832 -0.16832,-9.59446 z"
       id="path41"
       inkscape:connector-curvature="0" />
    <path
       style="fill:#666666;stroke:none;stroke-width:0.26458332px;stroke-linecap:butt;stroke-linejoin:miter;stroke-opacity:1"
       d="m 84.010288,134.39092 c 0,0 5.753954,-0.0735 7.783734,0.18874 -0.01688,1.45538 0.316226,8.37534 0.316226,8.37534 l -8.53521,-0.1972 z"
       id="path35"
       inkscape:connector-curvature="0"
       sodipodi:nodetypes="ccccc" />
    <path
       style="fill:#000000;stroke:none;stroke-width:0.26458332px;stroke-linecap:butt;stroke-linejoin:miter;stroke-opacity:1"
       d="m 48.732019,134.07469 c 2.861504,-0.16832 36.091007,-0.0613 36.091007,-0.0613 0,0 -0.216321,6.92091 -0.238046,9.65571 -1.009942,-0.12624 -36.69458,0.16833 -36.69458,-0.50497 0,-0.67329 0,-8.92116 0.841619,-9.08948 z"
       id="path37"
       inkscape:connector-curvature="0"
       sodipodi:nodetypes="cccsc" />
    <path
       style="fill:#000000;stroke:none;stroke-width:0.26458332px;stroke-linecap:butt;stroke-linejoin:miter;stroke-opacity:1"
       d="m 24.472977,133.82818 c 0.841619,0.6733 1.009942,3.02983 2.019885,3.19815 1.009942,0.16833 22.38706,0.50498 22.38706,0.50498 0,0 1.683238,-5.55469 0.504971,-5.04971 -1.178266,0.50496 -26.42683,1.85156 -24.911916,1.34658 z"
       id="path39"
       inkscape:connector-curvature="0" />
    <path
       style="fill:#cccccc;stroke:none;stroke-width:0.26458332px;stroke-linecap:butt;stroke-linejoin:miter;stroke-opacity:1"
       d="M 24.472977,90.568979 C 24.641301,90.905625 125.9722,90.400653 125.9722,90.400653 l 0.33665,44.774127 c 0,0 -103.519111,-0.6733 -103.350787,-1.3466 0.168324,-0.67329 0.841619,-43.427527 1.514914,-43.259201 z"
       id="path21"
       inkscape:connector-curvature="0" />
    <path
       style="fill:none;stroke:#000000;stroke-width:0.26458332px;stroke-linecap:butt;stroke-linejoin:miter;stroke-opacity:1"
       d="m 150.75788,108.95835 c -4.30241,-0.83749 -10.94105,-0.75746 -10.94105,-0.75746 l -0.37873,22.09249 1.51492,2.52486"
       id="path25"
       inkscape:connector-curvature="0"
       sodipodi:nodetypes="cccc" />
    <path
       style="fill:#000000;stroke:none;stroke-width:0.26458332px;stroke-linecap:butt;stroke-linejoin:miter;stroke-opacity:1"
       d="m 140.61637,126.59026 c 1.17826,0 4.03977,0 4.03977,0 l -0.50497,1.68324 h -3.19815 z"
       id="path27"
       inkscape:connector-curvature="0" />
    <path
       style="fill:#808080;fill-opacity:1;stroke:none;stroke-width:0.26458332px;stroke-linecap:butt;stroke-linejoin:miter;stroke-opacity:1"
       d="m 155.09222,132.31327 c 1.51491,0 2.35653,0.84162 2.35653,0.84162 l -0.33665,11.95099 c 0,0 -9.45257,0.61516 -9.42613,-0.33665 0.0421,-1.51492 0,-5.38636 0,-5.38636 l 5.59676,-0.50497 z"
       id="path31"
       inkscape:connector-curvature="0"
       sodipodi:nodetypes="cccsccc" />
    <path
       style="fill:#cccccc;fill-opacity:1;stroke:none;stroke-width:0.26458332px;stroke-linecap:butt;stroke-linejoin:miter;stroke-opacity:1"
       d="m 91.773601,134.20217 c 1.85156,0 39.051109,-0.33665 39.051109,-0.33665 l 0.84162,10.6044 -39.556082,-0.50497 c 0,0 -0.673295,-9.9311 -0.336647,-9.76278 z"
       id="path33"
       inkscape:connector-curvature="0" />
    <circle
       style="opacity:1;fill:#808080;fill-opacity:1;stroke:none;stroke-width:0.60000002;stroke-linecap:round;stroke-linejoin:round;stroke-miterlimit:4;stroke-dasharray:none;stroke-opacity:1"
       id="path45-5-0"
       cx="74.675537"
       cy="141.94981"
       r="6.6487885" />
    <path
       style="fill:#000000;stroke:none;stroke-width:0.26458332px;stroke-linecap:butt;stroke-linejoin:miter;stroke-opacity:1"
       d="m 139.60643,100.33176 c 0.16832,-0.16833 -1.68324,-2.693185 -1.68324,-2.693185 l -11.44601,-1.85156 c 0,0 -2.10467,39.753085 -0.6733,39.892735 1.72532,0.16832 5.9755,0.54705 8.24786,0.16832 -0.33664,-1.34659 2.88719,-2.36499 2.04557,-2.70163 -0.84162,-0.33665 -8.44187,-0.15988 -8.94684,-0.49653 -0.50497,-0.33664 2.35653,-31.98151 2.35653,-31.98151 0,0 8.58451,-0.37872 10.09943,-0.33664 z"
       id="path43"
       inkscape:connector-curvature="0"
       sodipodi:nodetypes="cccsccccc" />
    <circle
       style="opacity:1;fill:#808080;fill-opacity:1;stroke:none;stroke-width:0.60000002;stroke-linecap:round;stroke-linejoin:round;stroke-miterlimit:4;stroke-dasharray:none;stroke-opacity:1"
       id="path45"
       cx="56.286167"
       cy="141.90773"
       r="6.6487885" />
    <circle
       style="opacity:1;fill:#ffff00;fill-opacity:1;stroke:none;stroke-width:0.60000002;stroke-linecap:round;stroke-linejoin:round;stroke-miterlimit:4;stroke-dasharray:none;stroke-opacity:1"
       id="path45-3"
       cx="56.286167"
       cy="141.90773"
       r="4.4605794" />
    <circle
       style="opacity:1;fill:#ff0000;fill-opacity:1;stroke:none;stroke-width:0.60000002;stroke-linecap:round;stroke-linejoin:round;stroke-miterlimit:4;stroke-dasharray:none;stroke-opacity:1"
       id="path45-3-6"
       cx="56.286167"
       cy="141.90773"
       r="3.3664751" />
    <circle
       style="opacity:1;fill:#808080;fill-opacity:1;stroke:none;stroke-width:0.60000002;stroke-linecap:round;stroke-linejoin:round;stroke-miterlimit:4;stroke-dasharray:none;stroke-opacity:1"
       id="path45-7"
       cx="74.885941"
       cy="141.90773"
       r="6.6487885" />
    <circle
       style="opacity:1;fill:#333333;fill-opacity:1;stroke:none;stroke-width:0.60000002;stroke-linecap:round;stroke-linejoin:round;stroke-miterlimit:4;stroke-dasharray:none;stroke-opacity:1"
       id="path45-3-5"
       cx="74.885941"
       cy="141.90773"
       r="4.4605794" />
    <circle
       style="opacity:1;fill:#808080;fill-opacity:1;stroke:none;stroke-width:0.60000002;stroke-linecap:round;stroke-linejoin:round;stroke-miterlimit:4;stroke-dasharray:none;stroke-opacity:1"
       id="path45-3-6-3"
       cx="74.885941"
       cy="141.90773"
       r="3.3664751" />
    <circle
       style="opacity:1;fill:#808080;fill-opacity:1;stroke:none;stroke-width:0.60000002;stroke-linecap:round;stroke-linejoin:round;stroke-miterlimit:4;stroke-dasharray:none;stroke-opacity:1"
       id="path45-5"
       cx="56.244087"
       cy="141.94981"
       r="6.6487885" />
    <circle
       style="opacity:1;fill:#333333;fill-opacity:1;stroke:none;stroke-width:0.60000002;stroke-linecap:round;stroke-linejoin:round;stroke-miterlimit:4;stroke-dasharray:none;stroke-opacity:1"
       id="path45-3-62"
       cx="56.286167"
       cy="141.90773"
       r="4.4605794" />
    <circle
       style="opacity:1;fill:#808080;fill-opacity:1;stroke:none;stroke-width:0.60000002;stroke-linecap:round;stroke-linejoin:round;stroke-miterlimit:4;stroke-dasharray:none;stroke-opacity:1"
       id="path45-3-6-9"
       cx="56.286167"
       cy="141.90773"
       r="3.3664751" />
    <circle
       style="opacity:1;fill:#808080;fill-opacity:1;stroke:none;stroke-width:0.60000002;stroke-linecap:round;stroke-linejoin:round;stroke-miterlimit:4;stroke-dasharray:none;stroke-opacity:1"
       id="path45-7-1"
       cx="139.10146"
       cy="141.90773"
       r="6.6487885" />
    <circle
       style="opacity:1;fill:#333333;fill-opacity:1;stroke:none;stroke-width:0.60000002;stroke-linecap:round;stroke-linejoin:round;stroke-miterlimit:4;stroke-dasharray:none;stroke-opacity:1"
       id="path45-3-5-2"
       cx="139.10146"
       cy="141.90773"
       r="4.4605794" />
    <circle
       style="opacity:1;fill:#808080;fill-opacity:1;stroke:none;stroke-width:0.60000002;stroke-linecap:round;stroke-linejoin:round;stroke-miterlimit:4;stroke-dasharray:none;stroke-opacity:1"
       id="path45-3-6-3-7"
       cx="139.10146"
       cy="141.90773"
       r="3.3664751" />
    <path
       style="opacity:1;fill:#000000;fill-opacity:1;stroke:none;stroke-width:0.60000002;stroke-linecap:round;stroke-linejoin:round;stroke-miterlimit:4;stroke-dasharray:none;stroke-opacity:1"
       d="m 151.19603,116.48745 c 0.22601,0.60133 -1.27909,0.79826 -2.96299,1.03799 -1.68389,0.23975 -3.05769,0.52079 -3.13495,-0.16981 -0.0773,-0.69059 1.27909,-0.79825 2.963,-1.03799 1.6839,-0.23974 2.90893,-0.43152 3.13494,0.16981 z"
       id="path960"
       inkscape:connector-curvature="0"
       sodipodi:nodetypes="zszsz" />
    <circle
       style="opacity:1;fill:#333333;fill-opacity:1;stroke:none;stroke-width:0.60000002;stroke-linecap:round;stroke-linejoin:round;stroke-miterlimit:4;stroke-dasharray:none;stroke-opacity:1"
       id="path45-3-6-9-3"
       cx="46.36763"
       cy="138.80687"
       r="2.1762464" />
    <path
       style="fill:#ff0000;stroke:none;stroke-width:0.26458332px;stroke-linecap:butt;stroke-linejoin:miter;stroke-opacity:1"
       d="m 155.59719,133.53362 0.84161,0.0421 -0.0842,1.93572 -0.75745,-0.33665 z"
       id="path1052"
       inkscape:connector-curvature="0" />
    <path
       style="opacity:1;fill:#808080;fill-opacity:1;stroke:none;stroke-width:0.60000002;stroke-linecap:round;stroke-linejoin:round;stroke-miterlimit:4;stroke-dasharray:none;stroke-opacity:1"
       d="m 153.14718,118.38778 c 1.05527,0.3927 1.08807,1.17187 1.15742,2.0593 0.0694,0.88742 0.26953,1.68046 -0.90628,1.15436 -1.17582,-0.52608 -1.08809,-1.17187 -1.15744,-2.0593 -0.0693,-0.88743 -0.14898,-1.54706 0.9063,-1.15436 z"
       id="path960-6"
       inkscape:connector-curvature="0"
       sodipodi:nodetypes="zszsz" />
    <path
       style="fill:#ff0000;stroke:none;stroke-width:0.26458332px;stroke-linecap:butt;stroke-linejoin:miter;stroke-opacity:1"
       d="m 129.57012,141.36068 -0.0421,0.84161 -1.93572,-0.0842 0.33665,-0.75745 z"
       id="path1052-0"
       inkscape:connector-curvature="0" />
    <path
       style="fill:#ff0000;stroke:none;stroke-width:0.26458332px;stroke-linecap:butt;stroke-linejoin:miter;stroke-opacity:1"
       d="m 97.883172,140.8557 -0.04207,0.84162 -1.935724,-0.0842 0.336648,-0.75746 z"
       id="path1052-0-6"
       inkscape:connector-curvature="0" />
  </g>
</svg>
